<?xml version="1.0" standalone="no"?>
<!DOCTYPE svg PUBLIC "-//W3C//DTD SVG 20010904//EN"
 "http://www.w3.org/TR/2001/REC-SVG-20010904/DTD/svg10.dtd">
<svg version="1.0" xmlns="http://www.w3.org/2000/svg"
 width="787.000000pt" height="246.000000pt" viewBox="0 0 787.000000 246.000000"
 preserveAspectRatio="xMidYMid meet">

<g transform="translate(0.000000,246.000000) scale(0.100000,-0.100000)"
fill="#000000" stroke="none">
<path d="M1197 2421 l-228 -38 -67 20 c-98 28 -262 28 -365 -1 -87 -25 -170
-64 -236 -112 l-44 -32 39 -18 c42 -18 79 -50 106 -89 l17 -24 73 36 c186 90
374 72 537 -51 l54 -41 49 72 c65 95 156 186 248 249 41 28 79 55 85 60 15 13
-26 8 -268 -31z"/>
<path d="M1685 2420 c-443 -62 -727 -522 -580 -943 l24 -69 -22 -30 c-27 -36
-107 -98 -164 -127 -58 -29 -156 -51 -228 -51 -269 -1 -505 234 -505 501 l0
57 -47 7 c-50 7 -96 27 -126 53 -9 8 -20 12 -25 8 -4 -4 -7 -58 -7 -119 1
-130 22 -214 87 -339 137 -264 450 -418 744 -365 157 29 279 93 395 210 87 87
95 89 187 57 296 -104 427 -445 279 -724 -38 -73 -124 -162 -190 -196 -34 -18
-45 -29 -41 -40 26 -59 35 -101 32 -142 -2 -27 0 -48 3 -48 18 0 92 37 151 76
143 95 249 249 299 434 19 69 16 253 -4 330 -71 268 -283 472 -547 528 l-85
19 -18 47 c-41 111 -30 257 30 384 34 74 149 189 223 225 156 75 300 75 458 0
l73 -34 40 44 c21 25 57 54 80 65 l41 20 -44 32 c-141 103 -342 154 -513 130z"/>
<path d="M175 2195 c-5 -2 -22 -6 -37 -9 -72 -16 -136 -117 -125 -197 15 -115
144 -190 250 -145 43 17 93 76 106 123 13 47 13 49 0 96 -16 57 -63 104 -122
122 -52 15 -55 16 -72 10z"/>
<path d="M2256 2188 c-21 -6 -55 -27 -76 -48 -140 -140 14 -371 197 -295 50
21 72 42 94 90 66 143 -62 293 -215 253z"/>
<path d="M2980 1375 l0 -595 80 0 80 0 0 275 0 275 255 0 255 0 0 -275 0 -275
85 0 85 0 0 595 0 595 -85 0 -85 0 0 -250 0 -250 -255 0 -255 0 0 250 0 250
-80 0 -80 0 0 -595z"/>
<path d="M4930 1375 l0 -595 75 0 75 0 0 595 0 595 -75 0 -75 0 0 -595z"/>
<path d="M2465 1820 c-11 -19 -80 -48 -128 -55 l-47 -7 0 -57 c0 -185 -114
-363 -285 -446 -44 -22 -82 -40 -84 -42 -2 -1 14 -42 37 -90 52 -112 69 -180
84 -325 7 -65 14 -116 16 -114 2 2 43 108 92 236 84 220 91 235 143 288 103
109 161 219 191 364 28 136 15 303 -19 248z"/>
<path d="M4292 1599 c-118 -20 -246 -117 -297 -224 -148 -313 108 -657 451
-606 97 14 178 56 237 121 48 53 93 134 102 185 6 28 3 32 -40 54 -25 13 -47
22 -49 20 -2 -2 -14 -29 -28 -60 -56 -124 -150 -189 -273 -189 -87 0 -154 29
-209 90 -57 63 -78 119 -78 205 0 118 48 201 144 249 92 46 236 30 291 -31 17
-19 13 -22 -169 -144 -103 -68 -191 -127 -196 -130 -11 -7 42 -109 56 -109 10
0 516 330 516 337 0 2 -13 24 -29 47 -46 67 -135 142 -194 164 -64 25 -165 34
-235 21z"/>
<path d="M5552 1599 c-74 -13 -162 -60 -221 -120 -238 -241 -100 -651 239
-710 132 -24 285 25 370 118 48 53 96 138 106 190 5 25 0 31 -41 52 -25 13
-47 22 -49 20 -2 -2 -14 -29 -28 -60 -56 -124 -150 -189 -273 -189 -165 0
-288 126 -288 295 0 116 50 202 145 249 92 46 236 30 290 -31 17 -19 13 -23
-168 -144 -102 -68 -191 -127 -196 -130 -11 -7 41 -109 56 -109 10 0 516 330
516 337 0 2 -13 23 -29 46 -72 103 -171 170 -278 187 -66 11 -78 11 -151 -1z"/>
<path d="M6160 1322 c0 -298 5 -333 63 -419 36 -54 108 -107 170 -125 63 -18
183 -15 247 7 41 14 70 34 116 79 83 84 96 121 101 311 5 137 7 154 30 197 32
59 86 84 163 75 63 -8 107 -38 131 -91 17 -37 19 -69 19 -313 l0 -273 75 0 75
0 0 268 0 268 28 55 c35 70 74 92 154 86 70 -6 113 -34 139 -91 17 -37 19 -69
19 -313 l0 -273 76 0 75 0 -3 298 c-3 285 -4 299 -26 346 -36 78 -67 112 -133
145 -54 27 -73 31 -143 31 -100 0 -164 -27 -221 -92 l-38 -44 -41 45 c-61 66
-122 91 -226 91 -133 0 -212 -47 -272 -163 -19 -37 -22 -63 -27 -207 -5 -141
-9 -171 -27 -205 -49 -95 -179 -134 -274 -83 -35 19 -51 37 -75 83 l-30 59 -3
258 -4 258 -69 0 -69 0 0 -268z"/>
<path d="M235 1049 c5 -8 76 -96 157 -196 131 -161 151 -190 164 -240 8 -32
35 -100 60 -152 61 -124 170 -236 291 -299 44 -23 85 -42 90 -42 4 0 7 21 5
48 -3 41 6 83 32 142 4 11 -7 22 -41 40 -109 57 -207 191 -239 326 -14 62 -16
177 -2 234 2 12 -15 16 -92 21 -115 7 -192 27 -313 80 -51 22 -98 43 -106 47
-10 4 -12 1 -6 -9z"/>
<path d="M7697 700 c-30 -24 -50 -78 -42 -113 8 -32 52 -73 87 -81 35 -8 90
14 112 45 19 28 21 77 4 114 -24 53 -113 73 -161 35z"/>
<path d="M1215 360 c-44 -10 -69 -25 -103 -64 -75 -86 -46 -223 58 -276 49
-25 110 -26 158 -1 71 37 102 87 102 168 0 108 -110 197 -215 173z"/>
</g>
</svg>
