<?xml version="1.0" standalone="no"?>
<!DOCTYPE svg PUBLIC "-//W3C//DTD SVG 20010904//EN"
 "http://www.w3.org/TR/2001/REC-SVG-20010904/DTD/svg10.dtd">
<svg version="1.0" xmlns="http://www.w3.org/2000/svg"
 width="210.000000pt" height="207.000000pt" viewBox="0 0 210.000000 207.000000"
 preserveAspectRatio="xMidYMid meet">

<g transform="translate(0.000000,207.000000) scale(0.100000,-0.100000)"
fill="#000000" stroke="none">
<path d="M1010 2036 c-193 -31 -194 -31 -260 -14 -163 42 -362 3 -498 -99
l-33 -25 41 -20 c22 -11 54 -36 70 -56 29 -35 29 -35 55 -18 137 90 355 76
488 -32 l39 -31 35 52 c74 110 104 139 252 245 54 39 60 39 -189 -2z"/>
<path d="M1363 2025 c-140 -30 -290 -137 -372 -264 -68 -105 -86 -175 -86
-326 0 -110 4 -139 22 -189 l23 -59 -25 -32 c-31 -41 -116 -98 -179 -119 -274
-93 -564 109 -566 395 l0 46 -51 11 c-28 7 -64 22 -81 33 -16 12 -32 18 -35
15 -13 -12 -5 -183 10 -243 55 -211 227 -384 433 -437 79 -20 219 -20 297 0
103 27 193 79 276 161 l76 75 52 -12 c118 -26 248 -140 295 -260 17 -43 22
-77 22 -156 1 -96 0 -103 -36 -176 -41 -82 -93 -142 -160 -184 -24 -15 -44
-28 -46 -29 -2 -2 2 -14 9 -27 7 -12 15 -51 18 -85 l6 -62 65 32 c138 68 263
227 304 384 20 78 20 222 1 298 -38 143 -146 290 -271 365 -67 40 -175 79
-221 80 -40 0 -49 15 -65 109 -28 165 47 337 186 426 132 83 284 92 425 23 60
-29 64 -30 74 -12 15 27 55 62 88 76 16 7 29 15 29 18 0 7 -87 64 -128 85
-101 50 -265 67 -389 40z"/>
<path d="M104 1831 c-59 -27 -89 -73 -89 -138 0 -58 20 -93 75 -130 64 -44
150 -23 204 50 29 39 29 124 0 164 -22 31 -97 73 -129 73 -11 0 -38 -9 -61
-19z"/>
<path d="M1900 1841 c-127 -40 -153 -196 -47 -275 42 -31 130 -29 176 3 84 60
80 188 -9 252 -30 22 -86 31 -120 20z"/>
<path d="M2045 1514 c-22 -13 -59 -26 -83 -30 -32 -5 -42 -10 -38 -21 10 -25
-14 -145 -40 -202 -13 -30 -41 -75 -61 -99 -41 -50 -138 -117 -183 -127 -17
-4 -30 -8 -30 -9 0 -2 15 -36 34 -77 43 -93 65 -177 73 -279 3 -44 9 -80 13
-80 4 0 40 86 80 192 68 179 76 195 126 246 98 100 164 269 164 416 0 94 -5
100 -55 70z"/>
<path d="M206 878 c4 -7 62 -80 129 -163 97 -120 124 -160 134 -199 28 -112
113 -244 205 -317 40 -33 154 -99 168 -99 2 0 3 26 4 58 0 33 7 70 16 87 l16
31 -44 24 c-58 30 -136 116 -168 184 -26 54 -49 174 -41 211 2 11 6 34 9 51
l5 31 -77 6 c-98 8 -176 29 -273 72 -84 38 -94 41 -83 23z"/>
<path d="M982 294 c-44 -23 -74 -67 -80 -120 -6 -54 11 -95 53 -133 90 -79
227 -26 250 96 8 42 -26 117 -67 146 -36 27 -114 32 -156 11z"/>
</g>
</svg>
